<?xml version="1.0" encoding="UTF-8" standalone="no"?>
<!-- Generator: Adobe Illustrator 24.3.0, SVG Export Plug-In . SVG Version: 6.00 Build 0)  -->

<svg
   xmlns:dc="http://purl.org/dc/elements/1.1/"
   xmlns:cc="http://creativecommons.org/ns#"
   xmlns:rdf="http://www.w3.org/1999/02/22-rdf-syntax-ns#"
   xmlns:svg="http://www.w3.org/2000/svg"
   xmlns="http://www.w3.org/2000/svg"
   xmlns:sodipodi="http://sodipodi.sourceforge.net/DTD/sodipodi-0.dtd"
   xmlns:inkscape="http://www.inkscape.org/namespaces/inkscape"
   version="1.1"
   id="Capa_1"
   x="0px"
   y="0px"
   viewBox="0 0 300 200"
   style="enable-background:new 0 0 300 200;"
   xml:space="preserve"
   sodipodi:docname="menu.svg"
   inkscape:version="0.92.5 (2060ec1f9f, 2020-04-08)"><metadata
   id="metadata1153"><rdf:RDF><cc:Work
       rdf:about=""><dc:format>image/svg+xml</dc:format><dc:type
         rdf:resource="http://purl.org/dc/dcmitype/StillImage" /><dc:title /></cc:Work></rdf:RDF></metadata><defs
   id="defs1151">
	
	
	
	
	
	
	
	
	
	
</defs><sodipodi:namedview
   pagecolor="#ffffff"
   bordercolor="#666666"
   borderopacity="1"
   objecttolerance="10"
   gridtolerance="10"
   guidetolerance="10"
   inkscape:pageopacity="0"
   inkscape:pageshadow="2"
   inkscape:window-width="1920"
   inkscape:window-height="1027"
   id="namedview1149"
   showgrid="false"
   inkscape:zoom="2.4607316"
   inkscape:cx="150.83586"
   inkscape:cy="168.94864"
   inkscape:window-x="0"
   inkscape:window-y="27"
   inkscape:window-maximized="1"
   inkscape:current-layer="Capa_1" />
<style
   type="text/css"
   id="style1112">
	.st0{fill:#5F7993;}
	.st1{fill:#17B5C8;}
	.st2{fill:#11828F;}
	.st3{fill:#405162;}
	.st4{fill:#A6D100;}
	.st5{fill:#89AB00;}
	.st6{fill:#FFFFFF;}
	.st7{fill:none;stroke:#17B5C8;stroke-width:2;stroke-miterlimit:10;}
</style>

<circle
   style="opacity:1;fill:#5f7993;fill-opacity:1;fill-rule:nonzero;stroke:#5f7993;stroke-width:1.42345119;stroke-linecap:round;stroke-linejoin:round;stroke-miterlimit:4;stroke-dasharray:none;stroke-dashoffset:0;stroke-opacity:1"
   id="path1576"
   cx="148.80008"
   cy="102.34889"
   r="75.512962" /><path
   style="opacity:1;fill:#405162;fill-opacity:1;fill-rule:nonzero;stroke:none;stroke-width:1.42345119;stroke-linecap:round;stroke-linejoin:round;stroke-miterlimit:4;stroke-dasharray:none;stroke-dashoffset:0;stroke-opacity:1"
   d="M 98.133681,79.448254 C 88.162332,102.89792 89.094858,126.19996 95.087062,155.83249 81.421903,142.16733 72.969827,123.28909 72.969826,102.43676 72.969825,60.732102 106.77813,26.923797 148.48279,26.923798 129.26791,37.555983 107.62422,57.129308 98.133681,79.448254 Z"
   id="path1576-6"
   inkscape:connector-curvature="0"
   sodipodi:nodetypes="acsca" /><g
   id="g1087"
   transform="matrix(3.2833324,0,0,3.2833324,-89.479827,-726.46905)"><path
     inkscape:connector-curvature="0"
     id="path1223"
     d="m 94.366482,252.30606 h -5.102423 v 0"
     style="fill:none;stroke:#000000;stroke-width:0.43982732px;stroke-linecap:butt;stroke-linejoin:miter;stroke-opacity:1" /><path
     inkscape:connector-curvature="0"
     id="path1223-3"
     d="m 72.710431,274.05209 v -5.10242 0"
     style="fill:none;stroke:#000000;stroke-width:0.43982732px;stroke-linecap:butt;stroke-linejoin:miter;stroke-opacity:1" /><path
     inkscape:transform-center-y="2.0131469"
     inkscape:transform-center-x="1.2721584"
     inkscape:connector-curvature="0"
     id="path1223-56-2"
     d="m 64.072121,266.64717 -2.647131,4.36206 v 0"
     style="fill:none;stroke:#000000;stroke-width:0.43982732px;stroke-linecap:butt;stroke-linejoin:miter;stroke-opacity:1" /><path
     inkscape:transform-center-y="2.0131297"
     inkscape:transform-center-x="1.2721575"
     inkscape:connector-curvature="0"
     id="path1223-56"
     d="m 83.817092,233.73299 -2.647131,4.36206 v 0"
     style="fill:none;stroke:#000000;stroke-width:0.43982732px;stroke-linecap:butt;stroke-linejoin:miter;stroke-opacity:1" /><path
     inkscape:connector-curvature="0"
     id="path1223-5"
     d="m 72.649688,230.56002 v 5.10242 0"
     style="fill:none;stroke:#000000;stroke-width:0.43982732px;stroke-linecap:butt;stroke-linejoin:miter;stroke-opacity:1" /><path
     inkscape:transform-center-y="2.0131531"
     inkscape:transform-center-x="-1.2721576"
     inkscape:connector-curvature="0"
     id="path1223-56-1"
     d="m 81.287999,266.58643 2.647131,4.36206 v 0"
     style="fill:none;stroke:#000000;stroke-width:0.43982732px;stroke-linecap:butt;stroke-linejoin:miter;stroke-opacity:1" /><path
     inkscape:transform-center-y="2.0131429"
     inkscape:transform-center-x="-1.2721565"
     inkscape:connector-curvature="0"
     id="path1223-56-1-2"
     d="m 61.42499,233.78512 2.647133,4.36207 v 0"
     style="fill:none;stroke:#000000;stroke-width:0.43982732px;stroke-linecap:butt;stroke-linejoin:miter;stroke-opacity:1" /><path
     inkscape:transform-center-y="1.2721561"
     inkscape:transform-center-x="2.0131405"
     inkscape:connector-curvature="0"
     id="path1223-56-1-2-7"
     d="m 91.043972,241.0693 -4.362062,2.64712 v 0"
     style="fill:none;stroke:#000000;stroke-width:0.43982732px;stroke-linecap:butt;stroke-linejoin:miter;stroke-opacity:1" /><path
     inkscape:transform-center-y="1.2721596"
     inkscape:transform-center-x="2.0131407"
     inkscape:connector-curvature="0"
     id="path1223-56-1-2-7-0"
     d="m 58.369327,261.00512 -4.362062,2.64713 v 0"
     style="fill:none;stroke:#000000;stroke-width:0.43982732px;stroke-linecap:butt;stroke-linejoin:miter;stroke-opacity:1" /><path
     inkscape:transform-center-y="-1.2721567"
     inkscape:transform-center-x="2.0131393"
     inkscape:connector-curvature="0"
     id="path1223-56-1-2-7-9"
     d="m 91.352855,263.65223 -4.362062,-2.64713 v 0"
     style="fill:none;stroke:#000000;stroke-width:0.43982732px;stroke-linecap:butt;stroke-linejoin:miter;stroke-opacity:1" /><path
     inkscape:transform-center-y="-1.2721587"
     inkscape:transform-center-x="2.0131393"
     inkscape:connector-curvature="0"
     id="path1223-56-1-2-7-9-3"
     d="m 58.430071,243.54626 -4.362062,-2.64712 v 0"
     style="fill:none;stroke:#000000;stroke-width:0.43982732px;stroke-linecap:butt;stroke-linejoin:miter;stroke-opacity:1" /><path
     inkscape:connector-curvature="0"
     id="path1223-2"
     d="m 57.708396,251.68671 h -5.102423 v 0"
     style="fill:none;stroke:#000000;stroke-width:0.43982732px;stroke-linecap:butt;stroke-linejoin:miter;stroke-opacity:1" /></g><path
   style="opacity:1;fill:#17b5c8;fill-opacity:1;fill-rule:nonzero;stroke:#000000;stroke-width:2.206;stroke-linecap:round;stroke-linejoin:round;stroke-miterlimit:4;stroke-dasharray:none;stroke-dashoffset:0;stroke-opacity:1"
   d="m 152.19399,92.15422 58.97773,-27.391397 -53.72517,38.247987 c 0,0 -6.31331,2.98646 -9.30187,3.63344 -2.98855,0.64698 -6.56112,-4.00934 -4.50011,-7.726688 2.06102,-3.717344 8.54942,-6.763342 8.54942,-6.763342 z"
   id="rect1523"
   inkscape:connector-curvature="0"
   sodipodi:nodetypes="ccczzc"
   inkscape:transform-center-x="-27.675863"
   inkscape:transform-center-y="-15.605296" /><path
   style="opacity:1;fill:#17b5c8;fill-opacity:1;fill-rule:nonzero;stroke:#000000;stroke-width:2.238;stroke-linecap:round;stroke-linejoin:round;stroke-miterlimit:4;stroke-dasharray:none;stroke-dashoffset:0;stroke-opacity:1"
   d="M 142.09263,103.6762 107.45995,74.334068 148.1277,94.002312 c 0,0 4.69418,2.977261 5.88817,4.865053 1.19396,1.887835 -1.48911,7.082805 -4.7888,7.551045 -3.29972,0.46822 -7.13443,-2.7422 -7.13443,-2.7422 z"
   id="rect1523-3"
   inkscape:connector-curvature="0"
   sodipodi:nodetypes="ccczzc"
   inkscape:transform-center-x="17.927882"
   inkscape:transform-center-y="-11.162294" /><path
   id="path1541-6"
   style="opacity:1;fill:#a6d100;fill-opacity:1;fill-rule:nonzero;stroke:#a6d100;stroke-width:0.74091953;stroke-linecap:round;stroke-linejoin:round;stroke-miterlimit:4;stroke-dasharray:none;stroke-dashoffset:0;stroke-opacity:1"
   d="m 70.100929,101.84209 c -2e-6,-43.414336 35.063851,-78.608609 78.317301,-78.608608 43.25345,-10e-7 78.3173,35.194273 78.3173,78.608608 0,43.41433 -35.06385,78.6086 -78.3173,78.6086 l -0.72725,17.74002 c 53.71842,0 97.26581,-43.70937 97.26581,-97.6276 0,-53.918233 -43.54739,-97.627598 -97.26581,-97.6276013 -53.718427,-6e-7 -97.265818,43.7093653 -97.265817,97.6276013 L 42.085853,99.957861 59.02972,120.31915 78.131908,103.064 Z"
   inkscape:connector-curvature="0"
   sodipodi:nodetypes="cssccssccccc" /><path
   id="path1541-6-3"
   style="opacity:1;fill:#89ab00;fill-opacity:1;fill-rule:nonzero;stroke:none;stroke-width:0.74091953;stroke-linecap:round;stroke-linejoin:round;stroke-miterlimit:4;stroke-dasharray:none;stroke-dashoffset:0;stroke-opacity:1"
   d="m 69.683032,101.49737 c -2e-6,-43.414333 25.581099,-58.062629 40.960988,-68.551134 2.24599,-7.242686 15.85126,-29.8540474 36.62907,-30.3554456 -53.718434,0 -97.265825,43.7093666 -97.265824,97.6275996 l -8.33931,-0.605242 16.943867,20.361272 19.102188,-17.25515 z"
   inkscape:connector-curvature="0"
   sodipodi:nodetypes="cccccccc" /><path
   id="path1541-6-7"
   style="opacity:1;fill:none;fill-opacity:1;fill-rule:nonzero;stroke:#000000;stroke-width:2.641;stroke-linecap:round;stroke-linejoin:round;stroke-miterlimit:4;stroke-dasharray:none;stroke-dashoffset:0;stroke-opacity:1"
   d="M 78.835033,31.307201 C 61.233385,48.974321 50.346538,73.381222 50.346538,100.34034 l -8.33931,-0.605246 16.943867,20.361286 19.102188,-17.25515 -8.030979,-1.22191 c -2e-6,-43.414336 35.063826,-78.608609 78.317276,-78.608608 43.25345,-1e-6 78.3173,35.194273 78.3173,78.608608 0,10.85358 -2.19149,21.19341 -6.15456,30.59801 -1.98154,4.70231 -4.40597,9.1708 -7.2208,13.35281 m -9.56325,11.63385 c -14.17264,14.22536 -33.75197,23.02393 -55.37869,23.02393 l -0.72725,17.74002 c 53.71842,0 97.26581,-43.70937 97.26581,-97.6276 0,-53.918233 -43.54739,-97.6276008 -97.26581,-97.6276014 -20.64739,0.8526958 -38.59948,6.0554837 -54.382224,16.6732604"
   inkscape:connector-curvature="0"
   sodipodi:nodetypes="ccccccsssccccscc" /></svg>