<?xml version="1.0" encoding="UTF-8" standalone="no"?>
<!-- Generator: Adobe Illustrator 24.3.0, SVG Export Plug-In . SVG Version: 6.00 Build 0)  -->

<svg
   xmlns:dc="http://purl.org/dc/elements/1.1/"
   xmlns:cc="http://creativecommons.org/ns#"
   xmlns:rdf="http://www.w3.org/1999/02/22-rdf-syntax-ns#"
   xmlns:svg="http://www.w3.org/2000/svg"
   xmlns="http://www.w3.org/2000/svg"
   xmlns:sodipodi="http://sodipodi.sourceforge.net/DTD/sodipodi-0.dtd"
   xmlns:inkscape="http://www.inkscape.org/namespaces/inkscape"
   version="1.1"
   id="Capa_1"
   x="0px"
   y="0px"
   viewBox="0 0 32 32"
   style="enable-background:new 0 0 32 32;"
   xml:space="preserve"
   sodipodi:docname="restore.svg"
   inkscape:version="0.92.5 (2060ec1f9f, 2020-04-08)"><metadata
   id="metadata17"><rdf:RDF><cc:Work
       rdf:about=""><dc:format>image/svg+xml</dc:format><dc:type
         rdf:resource="http://purl.org/dc/dcmitype/StillImage" /><dc:title></dc:title></cc:Work></rdf:RDF></metadata><defs
   id="defs15" /><sodipodi:namedview
   pagecolor="#ffffff"
   bordercolor="#666666"
   borderopacity="1"
   objecttolerance="10"
   gridtolerance="10"
   guidetolerance="10"
   inkscape:pageopacity="0"
   inkscape:pageshadow="2"
   inkscape:window-width="1920"
   inkscape:window-height="1027"
   id="namedview13"
   showgrid="false"
   inkscape:zoom="7.375"
   inkscape:cx="16"
   inkscape:cy="16"
   inkscape:window-x="0"
   inkscape:window-y="27"
   inkscape:window-maximized="1"
   inkscape:current-layer="g10" />
<style
   type="text/css"
   id="style2">
	.st0{fill:#17B5C8;}
	.st1{fill:#11828F;}
	.st2{fill:none;}
	.st3{fill:#A6D100;}
	.st4{fill:#89AB00;}
	.st5{fill:#5F7993;}
	.st6{fill:#405162;}
	.st7{fill:#FFFFFF;}
	.st8{fill:#3A5368;}
</style>
<g
   id="g10">
	
	
	<path
   inkscape:connector-curvature="0"
   class="st3"
   d="m 2.1,17.3 h 1.4 1.3 c 0.4,5.8 5.3,10.4 11.2,10.4 6.2,0 11.2,-5 11.2,-11.2 0,-3 -1.2,-5.7 -3,-7.7 v 0 C 19.1,1 10.7,4.5 10.7,4.5 l 1,1.6 1.3,2.1 c 0.1,0.2 0.1,0.4 0,0.6 C 12.9,9 12.7,9.1 12.5,9.1 H 3.4 C 3.2,9.1 3,9 2.9,8.8 2.8,8.6 2.8,8.4 2.9,8.2 L 7.5,0.3 C 7.5,0.1 7.7,0 7.9,0 8.1,0 8.3,0.1 8.4,0.3 L 9.6,2.4 C 11.6,1.5 13.8,1 16,1 c 0.3,0 0.5,0 0.8,0 0,0 0.1,0 0.1,0 0.2,0 0.5,0 0.7,0.1 0,0 0,0 0,0 2.7,0.2 5.2,1.2 7.4,2.7 0,0 0.1,0.1 0.1,0.1 1.8,1.2 3.4,3.5 3.4,3.5 1.9,2.6 3,5.7 3,9.1 0,4.2 -1.7,8 -4.4,10.8 C 24.3,30.2 20.4,32 16,32 14.1,32 12.4,31.7 10.7,31.1 1.3,24.5 2.1,17.3 2.1,17.3 Z"
   id="path4"
   style="fill:#a6d100" /><path
   inkscape:connector-curvature="0"
   class="st4"
   d="m 24.2,8.8 v 0 C 22.1,6.6 19.2,5.2 16,5.2 v 0 c -1.4,0 -2.9,0.3 -4.2,0.8 l -1,-1.6 C 10.7,4.5 19.1,1 24.2,8.8 Z"
   id="path6"
   style="fill:#89ab00" /><path
   inkscape:connector-curvature="0"
   class="st4"
   d="m 0.6,18.4 v 0 0 C 0.6,18 0.5,17.6 0.5,17.3 h 0.1 1.1 0.4 c 0,0 -0.8,7.2 8.6,13.7 C 5.3,29.1 1.3,24.3 0.6,18.4 Z"
   id="path8"
   style="fill:#89ab00" />
</g>
</svg>